<svg xmlns="http://www.w3.org/2000/svg" fill="none" viewBox="0 0 840 380"><defs><filter id="gl" width="140%" height="140%" x="-20%" y="-20%"><feGaussianBlur in="SourceGraphic" result="b" stdDeviation="1.5"/><feComposite in="SourceGraphic" in2="b" operator="over"/></filter><style>.file-name,.section-title{font-family:&apos;SF Mono&apos;,&apos;Fira Code&apos;,monospace}.section-title{font-size:12px;font-weight:700;letter-spacing:1px}.file-name{font-size:11px;font-weight:600}.file-desc{font-family:&apos;Inter&apos;,system-ui,sans-serif;font-size:10px;fill:#9ca3af}.num{font-family:&apos;SF Mono&apos;,monospace;font-size:9px;font-weight:700}.conn{stroke-width:1.5;fill:none}</style><marker id="a" markerHeight="8" markerWidth="10" orient="auto" refX="11" refY="4" viewBox="0 0 12 8"><path fill="none" stroke="#D97706" stroke-linecap="round" stroke-linejoin="round" stroke-width="1.5" d="M 1 1 L 10 4 L 1 7"/></marker></defs><rect width="840" height="380" fill="#0D1117" rx="16"/><rect width="310" height="320" x="20" y="20" fill="#0F172A" stroke="#1E293B" stroke-width="1" rx="14"/><text x="40" y="44" fill="#94A3B8" class="section-title">HOOKS</text><rect width="282" height="52" x="34" y="60" fill="#1E1338" stroke="#7C3AED" stroke-width="1" rx="8"/><circle cx="50" cy="80" r="10" fill="#7C3AED" opacity=".3"/><text x="46" y="84" fill="#C4B5FD" class="num">1</text><text x="68" y="78" fill="#C4B5FD" class="file-name">user_prompt_submit_hook.py</text><text x="68" y="94" class="file-desc">Injects 📢 reminder at turn start</text><rect width="282" height="52" x="34" y="122" fill="#1E1338" stroke="#7C3AED" stroke-width="1" opacity=".8" rx="8"/><circle cx="50" cy="142" r="10" fill="#7C3AED" opacity=".3"/><text x="46" y="146" fill="#C4B5FD" class="num">2</text><text x="68" y="140" fill="#C4B5FD" class="file-name">post_tool_use_hook.py</text><text x="68" y="156" class="file-desc">Brief nudge after tool calls</text><rect width="282" height="52" x="34" y="184" fill="#271A0A" stroke="#D97706" stroke-width="1" rx="8"/><circle cx="50" cy="204" r="10" fill="#D97706" opacity=".3"/><text x="46" y="208" fill="#FCD34D" class="num">3</text><text x="68" y="202" fill="#FCD34D" class="file-name">stop_hook.py</text><text x="68" y="218" class="file-desc">Extracts 📢 summary → calls say</text><rect width="282" height="42" x="34" y="250" fill="#111827" stroke="#374151" stroke-dasharray="4 3" stroke-width="1" rx="8"/><text x="50" y="270" fill="#6B7280" class="file-name">voice_common.py</text><text x="196" y="270" fill="#4B5563" class="file-desc">shared config &amp; utils</text><rect width="130" height="22" x="34" y="300" fill="#111827" stroke="#374151" stroke-width=".8" rx="4"/><text x="46" y="315" fill="#4B5563" class="file-name" font-size="10">hooks.json</text><path stroke="#D97706" stroke-width="1.5" marker-end="url(#a)" d="M334 210 L365 210" class="conn"/><rect width="210" height="160" x="370" y="20" fill="#0F172A" stroke="#1E293B" stroke-width="1" rx="14"/><text x="390" y="44" fill="#94A3B8" class="section-title">SCRIPTS</text><rect width="182" height="106" x="384" y="60" fill="#0A1E14" stroke="#10B981" stroke-width="1" rx="8"/><text x="400" y="80" fill="#34D399" class="file-name" filter="url(#gl)">say</text><text x="400" y="98" fill="#6EE7B7" class="file-desc">Multi-backend TTS router</text><rect width="60" height="16" x="400" y="110" fill="#F59E0B" opacity=".15" rx="4"/><text x="408" y="122" fill="#FBBF24" font-family="monospace" font-size="9">fish 🐟</text><rect width="56" height="16" x="466" y="110" fill="#3B82F6" opacity=".15" rx="4"/><text x="473" y="122" fill="#60A5FA" font-family="monospace" font-size="9">kokoro</text><rect width="56" height="16" x="400" y="132" fill="#10B981" opacity=".15" rx="4"/><text x="408" y="144" fill="#34D399" font-family="monospace" font-size="9">pocket</text><rect width="210" height="80" x="370" y="200" fill="#0F172A" stroke="#1E293B" stroke-width="1" rx="14"/><text x="390" y="224" fill="#94A3B8" class="section-title">COMMANDS</text><rect width="182" height="34" x="384" y="234" fill="#1A1032" stroke="#8B5CF6" stroke-width=".8" rx="8"/><text x="400" y="254" fill="#A78BFA" class="file-name">speak.md</text><text x="475" y="254" class="file-desc">/voice:speak</text><rect width="220" height="270" x="600" y="20" fill="#0F172A" stroke="#1E293B" stroke-width="1" rx="14"/><text x="620" y="44" fill="#94A3B8" class="section-title">CONFIG</text><rect width="192" height="38" x="614" y="60" fill="#111827" stroke="#374151" stroke-width="1" rx="8"/><text x="630" y="78" fill="#94A3B8" class="file-name">plugin.json</text><text x="630" y="90" class="file-desc">v2.0.0 manifest</text><rect width="192" height="38" x="614" y="108" fill="#111827" stroke="#374151" stroke-width="1" rx="8"/><text x="630" y="126" fill="#94A3B8" class="file-name">marketplace.json</text><text x="630" y="138" class="file-desc">distribution metadata</text><rect width="192" height="64" x="614" y="160" fill="#1A0E26" stroke="#A855F7" stroke-dasharray="4 3" stroke-width="1" rx="8"/><text x="630" y="182" fill="#C084FC" class="file-name" font-size="10">~/.claude/cc-vox.toml</text><text x="630" y="198" fill="#A78BFA" class="file-desc">user config (voice, backend,</text><text x="630" y="210" fill="#A78BFA" class="file-desc">speed, prompt, enabled)</text><text x="410" y="350" fill="#4B5563" font-family="'Inter',system-ui,sans-serif" font-size="11" letter-spacing=".5">Pipeline: <tspan fill="#C4B5FD">①</tspan> inject → <tspan fill="#C4B5FD">②</tspan> nudge → <tspan fill="#FCD34D">③</tspan> extract → <tspan fill="#34D399">say</tspan> → <tspan fill="#60A5FA">🔊</tspan></text></svg>