<svg xmlns="http://www.w3.org/2000/svg" fill="none" viewBox="0 0 860 300"><defs><style>.box{rx:10;ry:10}.label,.sub{text-anchor:middle}.label{font-family:&apos;SF Mono&apos;,&apos;Fira Code&apos;,monospace;font-size:12px;font-weight:600}.sub{font-family:&apos;Inter&apos;,system-ui,sans-serif;font-size:10.5px;opacity:.85}.arrow{stroke:#6b7280;stroke-width:1.6;fill:none;marker-end:url(#ah)}.arrow-label{font-family:&apos;Inter&apos;,system-ui,sans-serif;font-size:9.5px;fill:#9ca3af;text-anchor:middle}.backend-box{rx:8;ry:8}.backend-label{font-family:&apos;SF Mono&apos;,&apos;Fira Code&apos;,monospace;font-size:11px;font-weight:600;text-anchor:middle}.backend-sub{font-family:&apos;Inter&apos;,system-ui,sans-serif;font-size:9.5px;text-anchor:middle;opacity:.7}</style><marker id="ah" markerHeight="8" markerWidth="10" orient="auto-start-reverse" refX="11" refY="4" viewBox="0 0 12 8"><path fill="none" stroke="#6B7280" stroke-linecap="round" stroke-linejoin="round" stroke-width="1.5" d="M 1 1 L 10 4 L 1 7"/></marker></defs><rect width="860" height="300" fill="#0D1117" rx="16"/><rect width="130" height="56" x="30" y="50" fill="#7C3AED" class="box"/><text x="95" y="75" fill="#fff" class="label">You chat</text><text x="95" y="90" fill="#E9D5FF" class="sub">with Claude</text><line x1="168" x2="200" y1="78" y2="78" class="arrow"/><rect width="150" height="56" x="212" y="50" fill="#2563EB" class="box"/><text x="287" y="72" fill="#fff" class="label">Claude responds</text><text x="287" y="88" fill="#BFDBFE" class="sub">+ adds 📢 summary</text><line x1="370" x2="402" y1="78" y2="78" class="arrow"/><rect width="140" height="56" x="414" y="50" fill="#D97706" class="box"/><text x="484" y="72" fill="#fff" class="label">Stop hook</text><text x="484" y="88" fill="#FEF3C7" class="sub">extracts 📢 text</text><line x1="562" x2="594" y1="78" y2="78" class="arrow"/><rect width="140" height="64" x="606" y="46" fill="#1F2937" stroke="#4B5563" stroke-width="1" class="box"/><text x="676" y="72" fill="#E5E7EB" class="label">say script</text><text x="676" y="88" fill="#9CA3AF" class="sub">auto-detects backend</text><line x1="642" x2="642" y1="114" y2="150" stroke="#4B5563" stroke-dasharray="5 4" stroke-width="1.5"/><line x1="676" x2="676" y1="114" y2="150" stroke="#4B5563" stroke-dasharray="5 4" stroke-width="1.5"/><line x1="710" x2="710" y1="114" y2="150" stroke="#4B5563" stroke-dasharray="5 4" stroke-width="1.5"/><rect width="238" height="78" x="596" y="140" fill="#111827" stroke="#1E293B" stroke-width="1" rx="12"/><rect width="66" height="48" x="608" y="154" fill="#FEF3C7" stroke="#F59E0B" stroke-width="1.2" class="backend-box"/><text x="641" y="173" fill="#92400E" class="backend-label">🐟 Fish</text><text x="641" y="190" fill="#92400E" class="backend-sub">:32611</text><rect width="66" height="48" x="682" y="154" fill="#DBEAFE" stroke="#3B82F6" stroke-width="1.2" class="backend-box"/><text x="715" y="173" fill="#1E40AF" class="backend-label">🗣 Kokoro</text><text x="715" y="190" fill="#1E40AF" class="backend-sub">:32612</text><rect width="66" height="48" x="756" y="154" fill="#D1FAE5" stroke="#10B981" stroke-width="1.2" class="backend-box"/><text x="789" y="173" fill="#065F46" class="backend-label">📦 pocket</text><text x="789" y="190" fill="#065F46" class="backend-sub">:8000</text><line x1="641" x2="641" y1="206" y2="226" stroke="#4B5563" stroke-dasharray="4 3" stroke-width="1.2"/><line x1="715" x2="715" y1="206" y2="226" stroke="#4B5563" stroke-dasharray="4 3" stroke-width="1.2"/><line x1="789" x2="789" y1="206" y2="226" stroke="#4B5563" stroke-dasharray="4 3" stroke-width="1.2"/><line x1="641" x2="789" y1="226" y2="226" stroke="#4B5563" stroke-width="1.2"/><line x1="715" x2="715" y1="226" y2="240" stroke="#4B5563" stroke-width="1.8"/><rect width="116" height="36" x="660" y="242" fill="#059669" class="box"/><text x="718" y="265" fill="#fff" class="label">🔊 You hear it</text><text x="626" y="148" fill="#F59E0B" class="arrow-label">GPU idle</text><text x="696" y="148" fill="#3B82F6" class="arrow-label">default</text><text x="768" y="148" fill="#10B981" class="arrow-label">fallback</text></svg>