<svg xmlns="http://www.w3.org/2000/svg" fill="none" viewBox="0 0 44 44"><defs><filter id="n-gp" width="200%" height="200%" x="-50%" y="-50%"><feGaussianBlur in="SourceGraphic" result="b" stdDeviation="1.5"/><feComposite in="SourceGraphic" in2="b" operator="over"/></filter><filter id="n-gc" width="200%" height="200%" x="-50%" y="-50%"><feGaussianBlur in="SourceGraphic" result="b" stdDeviation="1.2"/><feComposite in="SourceGraphic" in2="b" operator="over"/></filter><linearGradient id="n-pk" x1="0" x2="0" y1="0" y2="1"><stop offset="0%" stop-color="#FF2D95"/><stop offset="100%" stop-color="#F72585"/></linearGradient><linearGradient id="n-cn" x1="0" x2="0" y1="0" y2="1"><stop offset="0%" stop-color="#00F5FF"/><stop offset="100%" stop-color="#0CF4E9"/></linearGradient></defs><g filter="url(#n-gp)"><rect width="3.5" height="14" x="4" y="16" fill="url(#n-pk)" opacity=".4" rx="1.75"/><rect width="3.5" height="30" x="12" y="8" fill="url(#n-pk)" opacity=".7" rx="1.75"/><rect width="3.5" height="38" x="20" y="4" fill="url(#n-pk)" rx="1.75"/><rect width="3.5" height="32" x="28" y="7" fill="url(#n-pk)" opacity=".7" rx="1.75"/><rect width="3.5" height="16" x="36" y="15" fill="url(#n-pk)" opacity=".4" rx="1.75"/></g><g filter="url(#n-gc)"><rect width="3.5" height="22" x="8" y="12" fill="url(#n-cn)" opacity=".5" rx="1.75"/><rect width="3.5" height="26" x="16" y="10" fill="url(#n-cn)" opacity=".8" rx="1.75"/><rect width="3.5" height="34" x="24" y="6" fill="url(#n-cn)" opacity=".8" rx="1.75"/><rect width="3.5" height="24" x="32" y="11" fill="url(#n-cn)" opacity=".5" rx="1.75"/></g></svg>